<?xml version="1.0" encoding="iso-8859-1"?>
<!-- Generator: Adobe Illustrator 16.0.0, SVG Export Plug-In . SVG Version: 6.00 Build 0)  -->
<!DOCTYPE svg PUBLIC "-//W3C//DTD SVG 1.1//EN" "http://www.w3.org/Graphics/SVG/1.1/DTD/svg11.dtd">
<svg version="1.1" id="Capa_1" xmlns="http://www.w3.org/2000/svg" xmlns:xlink="http://www.w3.org/1999/xlink" x="0px" y="0px"
	 width="406.002px" height="406.003px" viewBox="0 0 406.002 406.003" style="enable-background:new 0 0 406.002 406.003;"
	 xml:space="preserve">
<g>
	<path d="M390.994,187.992H363.45c-3.087-33.197-16.231-63.507-36.401-87.82l19.491-19.503c5.873-5.861,5.873-15.354,0-21.221
		c-5.86-5.852-15.36-5.852-21.221,0l-19.491,19.503c-24.308-20.185-54.62-33.326-87.826-36.401V15.003
		C218.001,6.717,211.276,0,203.004,0c-8.302,0-15.006,6.723-15.006,15.003V42.55c-33.204,3.075-63.516,16.216-87.829,36.401
		L80.678,59.448c-5.867-5.852-15.36-5.852-21.221,0c-5.867,5.867-5.867,15.36,0,21.221l19.498,19.503
		c-20.179,24.313-33.314,54.623-36.407,87.82H15.006c-8.302,0-15.003,6.731-15.003,15.006c0,8.281,6.707,15.007,15.003,15.007
		h27.541c3.092,33.2,16.228,63.512,36.425,87.813l-19.516,19.498c-5.86,5.866-5.86,15.36,0,21.221
		c2.934,2.937,6.776,4.401,10.613,4.401c3.837,0,7.681-1.465,10.614-4.401l19.498-19.491c24.286,20.188,54.602,33.314,87.805,36.4
		v27.551c0,8.286,6.71,15.006,15.002,15.006c8.287,0,15-6.731,15-15.006v-27.551c33.207-3.086,63.52-16.213,87.814-36.4
		l19.504,19.503c2.93,2.931,6.779,4.396,10.622,4.396c3.837,0,7.675-1.465,10.599-4.396c5.873-5.866,5.873-15.36,0-21.227
		l-19.504-19.498c20.188-24.308,33.327-54.619,36.413-87.813h27.551c8.298,0,15.012-6.726,15.012-15
		C406,194.729,399.298,187.992,390.994,187.992z M202.996,255.648c-29.04,0-52.659-23.61-52.659-52.65
		c0-29.033,23.625-52.649,52.659-52.649c29.033,0,52.644,23.623,52.644,52.649C255.639,232.031,232.016,255.648,202.996,255.648z"/>
</g>
<g>
</g>
<g>
</g>
<g>
</g>
<g>
</g>
<g>
</g>
<g>
</g>
<g>
</g>
<g>
</g>
<g>
</g>
<g>
</g>
<g>
</g>
<g>
</g>
<g>
</g>
<g>
</g>
<g>
</g>
</svg>
